<svg title="Colour" xmlns="http://www.w3.org/2000/svg" viewBox="0 0 24 24" width="24" height="24">
<rect x="3.5" y="3.5" width="5" height="5" fill="rgb(255, 255, 255)">
</rect>
<rect x="9.5" y="3.5" width="5" height="5" fill="rgb(255, 255, 255)">
</rect>
<rect x="15.5" y="3.5" width="5" height="5" fill="rgb(255, 255, 255)">
</rect>
<rect x="3.5" y="9.5" width="5" height="5" fill="rgb(255, 255, 255)">
</rect>
<rect x="9.5" y="9.5" width="5" height="5" fill="rgb(255, 255, 255)">
</rect>
<rect x="15.5" y="9.5" width="5" height="5" fill="rgb(255, 255, 255)">
</rect>
<rect x="3.5" y="15.5" width="5" height="5" fill="rgb(255, 255, 255)">
</rect>
<rect x="9.5" y="15.5" width="5" height="5" fill="rgb(255, 255, 255)">
</rect>
<rect x="15.5" y="15.5" width="5" height="5" fill="rgb(255, 255, 255)">
</rect>
<path d="M0 0h24v24H0V0z" fill="none">
</path>
<path d="M20 2H4c-1.1 0-2 .9-2 2v16c0 1.1.9 2 2 2h16c1.1 0 2-.9 2-2V4c0-1.1-.9-2-2-2zM8 20H5c-.55 0-1-.45-1-1v-3h4v4zm0-6H4v-4h4v4zm0-6H4V5c0-.55.45-1 1-1h3v4zm6 12h-4v-4h4v4zm0-6h-4v-4h4v4zm0-6h-4V4h4v4zm5 12h-3v-4h4v3c0 .55-.45 1-1 1zm1-6h-4v-4h4v4zm0-6h-4V4h3c.55 0 1 .45 1 1v3z">
</path>
</svg>
